<?xml version="1.0" encoding="UTF-8" standalone="no"?>
<svg
   xmlns:dc="http://purl.org/dc/elements/1.1/"
   xmlns:cc="http://creativecommons.org/ns#"
   xmlns:rdf="http://www.w3.org/1999/02/22-rdf-syntax-ns#"
   xmlns:svg="http://www.w3.org/2000/svg"
   xmlns="http://www.w3.org/2000/svg"
   xmlns:xlink="http://www.w3.org/1999/xlink"
   xmlns:sodipodi="http://sodipodi.sourceforge.net/DTD/sodipodi-0.dtd"
   xmlns:inkscape="http://www.inkscape.org/namespaces/inkscape"
   width="250"
   height="275"
   viewBox="0 0 66.145834 72.760421"
   version="1.1"
   id="svg2199"
   inkscape:version="1.0.1 (c497b03c, 2020-09-10)"
   sodipodi:docname="surfer 2.svg">
  <defs
     id="defs2193">
    <linearGradient
       inkscape:collect="always"
       xlink:href="#linearGradient1340"
       id="linearGradient1342"
       x1="608.66711"
       y1="54.985275"
       x2="633.44861"
       y2="22.586641"
       gradientUnits="userSpaceOnUse"
       gradientTransform="translate(-604.08796,-34.278714)" />
    <linearGradient
       inkscape:collect="always"
       id="linearGradient1340">
      <stop
         style="stop-color:#464646;stop-opacity:1"
         offset="0"
         id="stop1336" />
      <stop
         style="stop-color:#656565;stop-opacity:1"
         offset="1"
         id="stop1338" />
    </linearGradient>
    <linearGradient
       inkscape:collect="always"
       xlink:href="#linearGradient1332"
       id="linearGradient1334"
       x1="649.50397"
       y1="68.866058"
       x2="674.04376"
       y2="95.138397"
       gradientUnits="userSpaceOnUse"
       gradientTransform="translate(-604.08796,-34.278714)" />
    <linearGradient
       inkscape:collect="always"
       id="linearGradient1332">
      <stop
         style="stop-color:#5c5c5c;stop-opacity:1"
         offset="0"
         id="stop1328" />
      <stop
         style="stop-color:#464646;stop-opacity:1"
         offset="1"
         id="stop1330" />
    </linearGradient>
    <linearGradient
       inkscape:collect="always"
       xlink:href="#linearGradient1538"
       id="linearGradient1326"
       x1="640.65137"
       y1="26.651402"
       x2="642.62671"
       y2="65.793243"
       gradientUnits="userSpaceOnUse"
       gradientTransform="translate(-604.08796,-34.278714)" />
    <linearGradient
       inkscape:collect="always"
       id="linearGradient1538">
      <stop
         style="stop-color:#808080;stop-opacity:1"
         offset="0"
         id="stop1534" />
      <stop
         style="stop-color:#5f5f5f;stop-opacity:1"
         offset="1"
         id="stop1536" />
    </linearGradient>
    <linearGradient
       inkscape:collect="always"
       xlink:href="#linearGradient1552"
       id="linearGradient1318"
       x1="636.59418"
       y1="34.95956"
       x2="670.03357"
       y2="74.186249"
       gradientUnits="userSpaceOnUse"
       gradientTransform="translate(-604.08796,-34.278714)" />
    <linearGradient
       inkscape:collect="always"
       id="linearGradient1552">
      <stop
         style="stop-color:#888888;stop-opacity:1"
         offset="0"
         id="stop1548" />
      <stop
         style="stop-color:#6b6b6b;stop-opacity:1"
         offset="1"
         id="stop1550" />
    </linearGradient>
    <linearGradient
       inkscape:collect="always"
       xlink:href="#linearGradient1514"
       id="linearGradient1516"
       x1="633.59204"
       y1="78.958443"
       x2="644.0401"
       y2="88.706917"
       gradientUnits="userSpaceOnUse"
       gradientTransform="translate(-604.08796,-34.278714)" />
    <linearGradient
       inkscape:collect="always"
       id="linearGradient1514">
      <stop
         style="stop-color:#ffcf3f;stop-opacity:1;"
         offset="0"
         id="stop1510" />
      <stop
         style="stop-color:#ba8c00;stop-opacity:1"
         offset="1"
         id="stop1512" />
    </linearGradient>
    <linearGradient
       inkscape:collect="always"
       xlink:href="#linearGradient1514"
       id="linearGradient1524"
       x1="599.90356"
       y1="64.243019"
       x2="606.38232"
       y2="70.045715"
       gradientUnits="userSpaceOnUse"
       gradientTransform="translate(-604.08796,-34.278714)" />
    <linearGradient
       inkscape:collect="always"
       xlink:href="#linearGradient1514"
       id="linearGradient1532"
       x1="629.71204"
       y1="6.3110304"
       x2="644.45581"
       y2="20.286278"
       gradientUnits="userSpaceOnUse"
       gradientTransform="translate(-604.08796,-34.278714)" />
    <linearGradient
       inkscape:collect="always"
       xlink:href="#linearGradient1544"
       id="linearGradient1546"
       x1="633.48718"
       y1="-1.3576815"
       x2="641.47614"
       y2="11.021771"
       gradientUnits="userSpaceOnUse"
       gradientTransform="translate(-604.08796,-34.278714)" />
    <linearGradient
       inkscape:collect="always"
       id="linearGradient1544">
      <stop
         style="stop-color:#fdc623;stop-opacity:1"
         offset="0"
         id="stop1540" />
      <stop
         style="stop-color:#ab910a;stop-opacity:1"
         offset="1"
         id="stop1542" />
    </linearGradient>
  </defs>
  <sodipodi:namedview
     id="base"
     pagecolor="#ffffff"
     bordercolor="#666666"
     borderopacity="1.0"
     inkscape:pageopacity="0.0"
     inkscape:pageshadow="2"
     inkscape:zoom="1.0645658"
     inkscape:cx="176.02362"
     inkscape:cy="254.76419"
     inkscape:document-units="mm"
     inkscape:current-layer="layer1"
     inkscape:document-rotation="0"
     showgrid="false"
     fit-margin-top="0"
     fit-margin-left="0"
     fit-margin-right="0"
     fit-margin-bottom="0"
     inkscape:window-width="1252"
     inkscape:window-height="878"
     inkscape:window-x="43"
     inkscape:window-y="0"
     inkscape:window-maximized="0"
     units="px" />
  <metadata
     id="metadata2196">
    <rdf:RDF>
      <cc:Work
         rdf:about="">
        <dc:format>image/svg+xml</dc:format>
        <dc:type
           rdf:resource="http://purl.org/dc/dcmitype/StillImage" />
        <dc:title></dc:title>
      </cc:Work>
    </rdf:RDF>
  </metadata>
  <g
     inkscape:label="Layer 1"
     inkscape:groupmode="layer"
     id="layer1"
     transform="translate(25.845106,37.866814)">
    <g
       id="g890"
       transform="matrix(0.49534802,0,0,0.49534802,-13.042784,-18.051229)">
      <path
         style="fill:#00e7e7;fill-opacity:1;stroke:none;stroke-width:0.183333px;stroke-linecap:butt;stroke-linejoin:miter;stroke-opacity:1"
         d="m 65.784632,62.924126 c 0,0 8.787102,-17.443962 15.014032,-22.882388 6.22693,-5.438426 11.737,-7.215193 19.19211,-4.98402 7.455106,2.231173 7.852166,13.104847 1.714236,13.104847 -6.137946,0 -3.669156,-5.283271 -5.082846,-0.974219 -1.22704,3.740118 -0.76299,3.498768 -0.76299,3.498768 0,0 3.51626,-0.690669 6.321276,1.185989 4.18386,2.799162 1.22111,12.661373 -4.744626,11.671093 -4.50551,-0.7479 -2.49066,-8.679812 -2.16961,-5.65306 -7.71243,9.09428 -12.50026,11.1964 -18.66379,14.62379 -6.163533,3.42738 -22.602884,10.96003 -22.602884,10.96003 z"
         id="path1602"
         sodipodi:nodetypes="czzsccssczcc" />
      <path
         style="opacity:1;fill:#ff8701;fill-opacity:1;stroke:none;stroke-width:0.264583px;stroke-linecap:butt;stroke-linejoin:miter;stroke-opacity:1"
         d="m -25.78949,99.981366 c 0.20946,1.117704 0.99524,1.144754 2.45894,1.952274 0.73185,0.40376 1.82737,0.83461 3.00495,1.23409 1.17758,0.39948 2.43721,0.7676 3.49727,1.04591 2.12012,0.55661 3.82686,0.80243 6.16444,1.09778 2.33758,0.29535 5.595151,0.59039 7.85333,0.59111 2.25817005,7.9e-4 3.65751005,-0.20118 5.65777,-0.42222 2.000261,-0.22104 3.99133,-0.16333 6.18902,-0.56812 2.19769,-0.40479 3.455101,-0.68665 6.84,-1.52 3.384902,-0.83335 8.777851,-2.15688 12.98208,-3.927504 4.204222,-1.77061 8.355222,-4.16384 12.03873,-6.54505 3.683511,-2.38121 7.446751,-5.0819 10.501982,-7.41316 3.055228,-2.33126 4.338428,-3.48795 7.876479,-6.48652 3.538051,-2.99857 9.407599,-7.71897 13.281919,-11.58306 3.874334,-3.86407 10.243044,-11.220372 10.026034,-11.435282 0,0 -6.48313,-2.389979 -8.680032,-3.306681 -2.196902,-0.916699 -4.54668,-2.066668 -4.54668,-2.066668 -0.197821,-0.0526 -21.61079,8.087691 -23.404861,8.956609 -1.794071,0.868921 -17.192509,8.941592 -22.475291,11.296782 -5.282779,2.3552 -10.594049,4.31206 -16.946718,7.44002 -6.35267095,3.12796 -15.849192,7.88887 -20.882442,11.16403 -2.51662,1.63758 -4.476729,2.97543 -6.02479,4.1495 -0.77403,0.58703 -1.44504,1.13313 -2.03111,1.65527 -0.58606,0.52215 -1.08716,1.02034 -1.52138,1.51159 -1.73686,1.96498 -2.06909,2.06161 -1.85964,3.1793 z"
         id="path1193"
         sodipodi:nodetypes="zssszzzzzzzzzzszczzzssssz" />
      <path
         style="opacity:1;fill:url(#linearGradient1342);fill-opacity:1;stroke:none;stroke-width:0.264583px;stroke-linecap:butt;stroke-linejoin:miter;stroke-opacity:1"
         d="m 26.35694,-13.872138 -3.386778,10.602336 -4.631791,6.811468 -0.953611,2.043438 -4.22311,4.768029 -2.86082,3.541962 -5.721628,6.811467 -2.997052,2.860818 1.907209,0.681138 1.634763,2.043441 7.08392,-3.814411 6.130329,-4.904261 1.770981,-1.498521 2.86081,-3.678192 1.907209,-3.133275 3.814419,-3.405735 3.814431,-5.17671601 z"
         id="path1195"
         sodipodi:nodetypes="cccccccccccccccccc" />
      <path
         style="opacity:1;fill:#ffffff;fill-opacity:1;stroke:none;stroke-width:0.264583px;stroke-linecap:butt;stroke-linejoin:miter;stroke-opacity:1"
         d="m -25.78949,99.981366 c 0.20946,1.117704 0.99524,1.144754 2.45894,1.952274 0.73185,0.40376 1.82737,0.83461 3.00495,1.23409 1.17758,0.39948 20.90399105,-3.535824 31.7908,-8.277264 10.886821,-4.74145 38.374431,-20.50225 43.035501,-23.44116 4.661061,-2.9389 15.407571,-12.496 22.534343,-17.491842 0,0 -0.93472,-0.345829 -3.131622,-1.262531 -2.196902,-0.916699 -2.29394,-0.982019 -2.29394,-0.982019 0,0 -9.708761,6.274001 -22.399922,13.000332 -12.69116,6.72632 -20.153709,11.24825 -27.710759,14.55765 -6.297769,2.75792 -43.321201,15.49744 -43.907271,16.01958 -0.58606,0.52215 -1.08716,1.02034 -1.52138,1.51159 -1.73686,1.96498 -2.06909,2.06161 -1.85964,3.1793 z"
         id="path1197"
         sodipodi:nodetypes="zsszzczcssssz" />
      <path
         style="opacity:1;fill:url(#linearGradient1334);fill-opacity:1;stroke:none;stroke-width:0.264583px;stroke-linecap:butt;stroke-linejoin:miter;stroke-opacity:1"
         d="m 59.776542,59.389545 c -1.2065,-0.0717 -3.10747,-0.101081 -4.10678,0.039 -0.99931,0.14011 -1.84231,-0.202451 -2.364452,0.16429 -0.522139,0.366739 -0.588668,1.334159 -0.588668,1.334159 0.0637,0.2677 0.28104,1.150641 1.327028,1.951522 1.04599,0.80088 3.48969,1.33144 5.239271,1.81379 1.749581,0.48235 3.376851,0.9105 5.23313,1.08672 1.85628,0.17622 4.80695,0.78739 5.84231,-0.0903 1.035359,-0.87769 0.38413,-1.48815 0.41175,-2.26376 0.0276,-0.77561 -0.577059,-1.895201 -0.81429,-2.565282 C 68.667302,59.007455 68.095363,58.131623 67.168612,57.046176 66.115181,55.832894 65.657172,55.232393 63.17679,52.184213 60.696411,49.136034 52.725391,38.647498 52.725391,38.647498 l -8.482811,1.24905 -6.309379,1.42898 c 0,0 3.61568,1.641676 6.743179,3.989337 3.127502,2.347659 8.92407,8.51249 11.396872,10.694329 2.472798,2.181842 3.70329,3.380319 3.70329,3.380319 z"
         id="path1199"
         sodipodi:nodetypes="czzszzzzzcczccczzcc" />
      <path
         style="opacity:1;fill:url(#linearGradient1326);fill-opacity:1;stroke:none;stroke-width:0.264583px;stroke-linecap:butt;stroke-linejoin:miter;stroke-opacity:1"
         d="m 39.952152,54.428206 c -0.145312,1.959528 -0.91468,4.314769 -1.283002,6.415018 -0.368318,2.100252 -0.679918,4.100902 -0.93309,6.181732 -0.253169,2.08084 -0.51929,4.91516 -0.583189,6.29838 -0.0639,1.38322 0,1.16636 0,1.98282 0,0.81646 -0.0985,2.11537 0,2.91592 0.0985,0.80055 0.32803,1.18562 0.46655,1.86619 0.13852,0.68057 0.461349,1.44145 0.349909,2.21609 -0.11144,0.77464 -0.467789,1.70044 -1.049729,2.2161 -0.58194,0.51566 0.49272,0.45161 -2.099461,0.69982 -2.592178,0.24821 -10.38493,-0.98124 -13.29658,-1.74955 -2.911649,-0.76831 -3.301359,-1.17647 -4.31556,-1.74955 -1.014198,-0.57308 -1.335659,-0.84678 -1.866188,-1.39964 -0.530532,-0.55286 -1.157502,-1.66133 -1.21167,-1.92563 -0.0542,-0.2643 -0.0914,-0.77016 0.278579,-1.10692 0.37002,-0.33676 0.914509,-0.22194 1.74955,-0.34991 0.835041,-0.12797 2.04108,-0.21431 3.265829,-0.34991 1.224751,-0.1356 2.90355,-0.10624 4.08228,-0.46655 1.178732,-0.36031 2.138852,-1.10704 2.915912,-1.51628 0.77706,-0.40924 1.186108,-0.23571 1.74956,-0.93309 0.563448,-0.69738 0.648819,-1.43813 0.93309,-3.26583 0.284268,-1.8277 0.327668,-5.08726 0.23327,-7.69801 -0.0944,-2.610751 -0.66262,-4.934581 -0.816452,-7.931292 -0.153828,-2.99671 0.20546,-7.34406 0,-10.030751 -0.205459,-2.68669 -1.069128,-4.57518 -0.9331,-6.06511 0.13603,-1.489929 0.4778,-2.019469 0.9331,-2.682639 0.455301,-0.66317 0.5143,-0.47443 1.51628,-1.283002 1.00198,-0.808569 0.94489,-0.865208 4.54883,-3.499098 3.60394,-2.633896 13.99395,-9.793899 17.290161,-11.995857 3.296211,-2.20196 2.020441,-0.960525 2.30504,-1.481809 0.284601,-0.521285 0.99546,0.950309 0,-0.82323 C 53.18661,15.143079 47.31571,12.956289 44.46797,10.989372 41.620231,9.022454 39.046301,6.981196 37.05892,5.22677 35.071542,3.472345 34.240502,2.733459 32.448841,0.61668899 30.657181,-1.500081 27.33693,-4.96453 26.57376,-7.622949 c -0.763169,-2.65842 -0.21682,-6.249189 -0.21682,-6.249189 l 11.03127,-9.384804 1.811102,-0.164647 7.902998,3.622205 c 0,0 8.308991,5.090513 11.689842,8.067641 3.380849,2.977128 6.559249,6.913962 8.561578,9.549455 2.002332,2.63549099 2.09332,2.59772699 3.786862,5.927246 1.69354,3.329517 4.840192,10.825298 5.597952,14.324179 0.75776,3.498882 0.83435,3.879313 0.32929,6.091891 -0.50506,2.212592 -2.19141,4.948045 -3.622202,6.585826 -1.43079,1.637779 -1.27054,1.533398 -4.445439,3.29292 -3.174902,1.759519 -10.917532,5.001209 -15.120491,5.944298 -4.202962,0.943092 -7.01281,0.125622 -9.576371,0.64153 -2.563559,0.515911 -4.679339,0.1422 -5.762599,1.975752 -1.083262,1.83355 0.931609,4.609251 1.15252,6.585831 0.220908,1.976578 0.404209,3.28149 0.2589,5.241021 z"
         id="path1201"
         sodipodi:nodetypes="zzzzzzzzzzzzzzzzzzzzzzzzzzzzzzzzzzzcccczzzzzzzzzzzz" />
      <path
         style="opacity:1;fill:url(#linearGradient1318);fill-opacity:1;stroke:none;stroke-width:0.264583px;stroke-linecap:butt;stroke-linejoin:miter;stroke-opacity:1"
         d="m 51.41537,-9.675859 -2.63385,-3.804439 -4.097089,-1.024273 -4.316579,0.512135 -2.194872,2.414357 -1.609569,3.950767 -0.877951,4.389739 1.097441,4.682389 2.121699,3.072818 1.390092,2.85333 1.024268,7.389395 1.316922,5.414012 -0.438971,2.194867 -1.609571,4.023932 -2.04855,5.121362 -3.584948,5.999311 -1.902222,2.63384 0.43897,1.609571 2.04855,1.68274 1.829062,0.146319 1.17253,-0.984959 3.144039,-4.282731 3.731281,-3.731281 2.3412,-3.292298 2.48752,-5.779825 1.390078,-3.072821 -0.21949,-2.268027 V 14.540874 L 52.000661,8.614723 52.14698,0.56686799 Z"
         id="path1203"
         sodipodi:nodetypes="ccccccccccccccccccccccccccccccc" />
      <path
         style="opacity:1;fill:url(#linearGradient1516);fill-opacity:1;stroke:none;stroke-width:0.264583px;stroke-linecap:butt;stroke-linejoin:miter;stroke-opacity:1"
         d="m 33.05162,40.147683 0.43897,1.609571 2.04855,1.68274 1.829062,0.146319 v 0 l 0.0704,2.568181 -0.962348,1.85596 -1.306042,2.680829 0.137481,1.581002 0.274949,1.99344 -0.481168,0.618649 -0.618652,-0.343699 -1.09983,-3.299482 -0.137478,-2.405869 -0.13748,3.09326 0.68739,1.718482 -0.343691,0.618659 -0.756129,0.0687 -1.581002,-3.09326 0.274961,-2.543349 -0.274961,1.718479 -0.343699,0.68739 -0.206211,1.99344 -0.54992,1.855959 -0.904568,-0.15766 -0.168931,-0.526888 -0.0383,-1.640351 v -2.93892 l 0.901708,-2.003801 -0.935109,2.037202 -0.10019,2.304381 -0.300569,0.601138 -0.634542,-0.100189 -0.233778,-0.768131 0.400759,-3.37307 0.96851,-2.237581 -0.834919,-0.834919 0.386979,-0.56696 0.98229,-0.0676 1.469461,-2.471359 1.502849,-1.035301 z"
         id="path1205"
         sodipodi:nodetypes="cccccccccccccccccccccccccccccccccccccccccc" />
      <path
         style="opacity:1;fill:url(#linearGradient1524);fill-opacity:1;stroke:none;stroke-width:0.264583px;stroke-linecap:butt;stroke-linejoin:miter;stroke-opacity:1"
         d="m 1.58215,23.56738 1.907209,0.681138 1.634763,2.043441 -1.48023,0.658251 -0.5442,1.381448 -0.0419,1.255866 -1.381447,1.674479 -1.04655195,1.297731 -0.586069,1.54889 -1.04655005,1.674479 -0.795381,-0.0837 -0.37676,-0.795382 0.29303,-1.381448 0.711661,-1.088411 0.16745,-0.75352 -1.172141,0.66979 -0.627929,1.67449 -0.50235,1.883791 0.20931,2.637308 -0.41862,0.795383 -0.544201,-0.334902 -1.130279,-4.060619 1.33959,4.64669 -0.627931,0.418618 -0.627939,-0.544208 -0.20931,-4.897861 0.920969,-3.60013 0.20931,-1.004689 3.181521,-3.683865 z"
         id="path1207" />
      <path
         style="opacity:1;fill:url(#linearGradient1532);fill-opacity:1;stroke:none;stroke-width:0.264583px;stroke-linecap:butt;stroke-linejoin:miter;stroke-opacity:1"
         d="m 29.39924,-35.636395 -4.434138,1.388077 -1.927882,3.547307 -0.231349,4.973942 0.115679,3.393077 1.503751,5.899325 2.12067,3.585866 1.31096,0.963943 1.503749,0.192786 1.850771,-0.732594 2.004999,-1.927884 3.31596,-5.359519 -0.0771,-1.927886 0.42413,0.347019 0.88683,-0.886825 0.308462,-2.390576 0.655479,-1.426636 -0.308459,-0.771155 -0.771152,-0.07711 -0.84827,0.925385 -0.578369,0.616924 1.349521,-1.272405 -0.616921,-5.706535 -3.39308,-2.429134 z"
         id="path1209" />
      <path
         style="opacity:1;fill:url(#linearGradient1546);fill-opacity:1;stroke:none;stroke-width:0.264583px;stroke-linecap:butt;stroke-linejoin:miter;stroke-opacity:1"
         d="m 26.330031,-30.247279 3.66059,3.14951 3.193971,1.129575 2.298099,1.324326 0.155811,2.882363 0.585459,-3.541424 1.426639,-1.542309 v 0 l 0.380841,0.04845 c 0,0 -0.23509,-5.340563 -1.413909,-7.033188 -1.17882,-1.692623 -1.319361,-1.664994 -2.383481,-2.342762 -1.06412,-0.677768 -2.231019,-1.301324 -3.621249,-1.56428 -1.390232,-0.262956 -3.158461,-0.148139 -4.672512,0.545562 -1.514049,0.693701 -2.822268,2.148913 -3.564639,3.611503 -0.742371,1.462591 -0.84681,4.311029 -0.84681,4.311029 l 0.107699,4.486549 1.28501,2.448385 v 0 l -0.115679,-3.393077 2.818199,-2.240616 z"
         id="path1211"
         sodipodi:nodetypes="ccccccccczzzzzccccccc" />
      <path
         style="fill:#ffffff;fill-opacity:1;stroke:none;stroke-width:0.183333px;stroke-linecap:butt;stroke-linejoin:miter;stroke-opacity:1"
         d="m 84.472254,39.445616 c 3.04131,-2.026602 7.58551,-5.05569 15.04062,-2.824517 -8.38735,1.065078 -11.46819,4.062936 -13.76767,6.305555 -2.37823,2.31942 -7.19685,8.256411 -7.19685,8.256411 1.04953,-4.83008 2.0785,-8.67427 5.9239,-11.737449 z"
         id="path1604"
         sodipodi:nodetypes="ccscc" />
      <path
         style="fill:#ffffff;fill-opacity:1;stroke:none;stroke-width:0.108717px;stroke-linecap:butt;stroke-linejoin:miter;stroke-opacity:1"
         d="m 86.456154,55.746786 c 0.84089,-1.201542 3.10023,-3.236622 4.44032,-3.689721 1.07224,-0.362532 5.51679,-1.19026 9.306156,1.4433 -4.923206,-0.94809 -7.212786,0.172601 -8.922616,1.01192 -1.76838,0.868069 -6.94479,4.608409 -6.94479,4.608409 0,0 1.28006,-2.172369 2.12093,-3.373908 z"
         id="path1606"
         sodipodi:nodetypes="zscscz" />
    </g>
  </g>
</svg>
